HIERARCHY
ROOT Hips
{
  OFFSET 3.13124 94.3669 -3.18751
  CHANNELS  6 Xposition Yposition Zposition Zrotation Xrotation Yrotation
  JOINT LeftUpLeg
  {
    OFFSET 8.64259 1.95398 -2.38835
    CHANNELS 3 Zrotation Xrotation Yrotation
    JOINT LeftLeg
    {
      OFFSET 43.7702 0 0
      CHANNELS 3 Zrotation Xrotation Yrotation
      JOINT LeftFoot
      {
        OFFSET 40.6238 0 0
        CHANNELS 3 Zrotation Xrotation Yrotation
        JOINT LeftToeBase
        {
          OFFSET 12.7242 0 0
          CHANNELS 3 Zrotation Xrotation Yrotation
          End Site
          {
            OFFSET 0 0 0
          }
        }
      }
    }
  }
  JOINT RightUpLeg
  {
    OFFSET -8.2249 1.95398 -2.59336
    CHANNELS 3 Zrotation Xrotation Yrotation
    JOINT RightLeg
    {
      OFFSET 43.5653 0 0
      CHANNELS 3 Zrotation Xrotation Yrotation
      JOINT RightFoot
      {
        OFFSET 40.6238 0 0
        CHANNELS 3 Zrotation Xrotation Yrotation
        JOINT RightToeBase
        {
          OFFSET 12.7242 0 0
          CHANNELS 3 Zrotation Xrotation Yrotation
          End Site
          {
            OFFSET 0 0 0
          }
        }
      }
    }
  }
  JOINT Spine
  {
    OFFSET 0.165834 0.87714 6.61349
    CHANNELS 3 Zrotation Xrotation Yrotation
    JOINT Spine1
    {
      OFFSET 7.38962 1.71661e-005 0
      CHANNELS 3 Zrotation Xrotation Yrotation
      JOINT Spine2
      {
        OFFSET 11.9445 1.14441e-005 0
        CHANNELS 3 Zrotation Xrotation Yrotation
        JOINT Spine3
        {
          OFFSET 14.7254 4.19617e-005 0
          CHANNELS 3 Zrotation Xrotation Yrotation
          JOINT Spine4
          {
            OFFSET 10.9679 0 0
            CHANNELS 3 Zrotation Xrotation Yrotation
            JOINT RightShoulder
            {
              OFFSET 2.46616 -1.6653 3.69651
              CHANNELS 3 Zrotation Xrotation Yrotation
              JOINT RightArm
              {
                OFFSET 13.0012 0 0
                CHANNELS 3 Zrotation Xrotation Yrotation
                JOINT RightForeArm
                {
                  OFFSET 28.7848 1.52588e-005 0
                  CHANNELS 3 Zrotation Xrotation Yrotation
                  JOINT RightHand
                  {
                    OFFSET 26.5688 1.52588e-005 0
                    CHANNELS 3 Zrotation Xrotation Yrotation
                    End Site
                    {
                      OFFSET 0 0 0
                    }
                  }
                }
              }
            }
            JOINT LeftShoulder
            {
              OFFSET 2.38034 -1.29275 -3.75231
              CHANNELS 3 Zrotation Xrotation Yrotation
              JOINT LeftArm
              {
                OFFSET 16.3182 6.10352e-005 0
                CHANNELS 3 Zrotation Xrotation Yrotation
                JOINT LeftForeArm
                {
                  OFFSET 27.0901 0 0
                  CHANNELS 3 Zrotation Xrotation Yrotation
                  JOINT LeftHand
                  {
                    OFFSET 24.5451 1.52588e-005 0
                    CHANNELS 3 Zrotation Xrotation Yrotation
                    End Site
                    {
                      OFFSET 0 0 0
                    }
                  }
                }
              }
            }
            JOINT Neck
            {
              OFFSET 5.0226 -0.0266342 0
              CHANNELS 3 Zrotation Xrotation Yrotation
              JOINT Head
              {
                OFFSET 6.69363 2.86102e-005 0
                CHANNELS 3 Zrotation Xrotation Yrotation
                End Site
                {
                  OFFSET 0 0 0
                }
              }
            }
          }
        }
      }
    }
  }
}
MOTION
Frames:	18
Frame Time:	0.0333333
54.2313 92.1261 -39.9407 -89.5498 -25.1297 -94.1263 -177.699 16.1688 83.5127 -18.6918 -18.8963 1.15103 58.0668 2.47531 1.34357 28.7808 4.23721e-006 1.53998e-005 171.995 -3.94394 74.5081 -6.04325 41.2295 3.23658 60.3843 3.32896 2.1457 28.7808 1.4092e-005 2.81049e-005 0.846963 6.28996 -90.1947 14.3095 1.43642 -1.21183 2.63875 1.38168 -1.27368 -19.9007 1.73428 -0.724993 0.11197 1.73425 -0.725012 80.4958 -59.391 -111.783 17.2824 21.9037 17.0339 26.9943 18.9452 -63.3226 -1.21741 -0.142813 16.4761 -101.884 -66.059 66.8447 -18.9799 -16.5768 5.71137 -8.88736 -9.7042 -53.1832 -7.32355 -0.964188 15.6013 -22.9124 20.0903 19.9272 -37.1539 18.6338 11.2888 
54.1344 92.1774 -38.3378 -90.7653 -26.5031 -94.7778 -177.916 14.6001 82.4289 -18.7401 -17.974 1.13817 58.7934 2.65118 1.45252 28.7808 4.23721e-006 1.53998e-005 171.134 -5.53185 73.2367 -6.0746 41.538 3.27346 58.3198 3.83959 2.59783 28.7808 1.4092e-005 2.81049e-005 0.907695 6.3469 -90.2188 14.1969 1.51577 -1.2384 2.52621 1.45992 -1.30394 -20.0141 1.81705 -0.722979 -0.00148988 1.81706 -0.722991 80.2376 -59.163 -112.208 19.1918 20.8572 16.5422 25.3986 16.3005 -65.2009 2.68909 0.551382 14.5439 -102.835 -66.2574 65.7309 -18.6469 -16.8373 4.95936 -9.41134 -10.1336 -53.2239 -7.26871 -0.963409 15.8301 -23.2391 19.6909 20.2786 -36.975 18.5829 10.4022 
54.0246 92.3501 -36.7984 -91.7492 -28.6339 -94.9933 -178.131 13.0727 81.7422 -18.3158 -16.2721 1.17278 59.0649 2.93622 1.62944 28.7808 4.23721e-006 1.53998e-005 170.482 -7.19354 72.5069 -6.04379 41.2532 3.23609 55.3724 3.13555 2.35522 28.7808 1.4092e-005 2.81049e-005 0.880335 6.36363 -90.4149 14.1587 1.45201 -1.31209 2.48786 1.39287 -1.37473 -20.0513 1.77921 -0.814993 -0.0386901 1.7792 -0.815006 80.2071 -58.8023 -112.365 20.3337 20.26 15.8598 21.0181 12.54 -66.5792 6.83749 1.45487 17.3557 -103.198 -66.3853 65.324 -18.6688 -16.8406 4.38862 -9.7603 -10.357 -53.4339 -7.00091 -0.949301 16.6382 -23.4518 19.2726 20.625 -36.9961 18.4788 9.50032 
53.9242 92.5665 -35.3391 -92.6193 -30.9682 -94.9867 -178.283 11.4778 81.3302 -17.5122 -14.0967 1.25748 59.2309 3.27383 1.83967 28.7808 4.23721e-006 1.53998e-005 170.227 -7.92242 72.1717 -7.94848 39.5237 3.02668 52.4695 1.64415 1.48465 28.7808 1.4092e-005 2.81049e-005 0.867948 6.36505 -90.6499 14.1492 1.42379 -1.35451 2.47824 1.36262 -1.41584 -20.0605 1.76478 -0.863998 -0.0477946 1.76478 -0.864003 80.0284 -58.9322 -112.568 20.8352 20.0248 15.3362 17.1887 9.823 -67.6005 10.8145 2.26916 17.5132 -103.06 -66.1684 65.4253 -18.9764 -16.593 4.06692 -9.53088 -10.0829 -53.6798 -6.61004 -0.920526 17.8773 -23.1872 18.9192 19.8919 -37.4576 18.078 9.15085 
53.9052 92.4108 -34.1028 -93.6018 -33.4062 -95.5303 -178.22 10.799 80.5629 -18.6925 -11.7326 1.39073 60.2144 3.41913 1.91147 28.7808 4.23721e-006 1.53998e-005 172.94 -3.84476 71.8496 -20.6053 36.7474 2.64171 52.1395 1.43371 1.36645 28.7808 1.4092e-005 2.81049e-005 0.88096 6.37808 -90.5142 14.1277 1.41932 -1.43307 2.45666 1.35488 -1.49415 -20.0815 1.78424 -0.940188 -0.0688716 1.78424 -0.940217 80.2444 -58.8812 -112.293 20.6329 20.3595 15.0471 16.1814 8.59824 -69.1666 14.1741 3.14004 18.9571 -103.366 -66.1061 65.0277 -19.1586 -16.457 4.11686 -9.22028 -9.66353 -54.1867 -6.92628 -1.06857 19.8613 -23.2904 18.374 19.5252 -37.3634 17.6939 8.54385 
53.9346 92.1875 -32.9984 -94.7816 -36.0231 -96.2417 -178.138 10.2239 79.8423 -20.2093 -9.42641 1.57839 61.2947 3.64593 2.02397 28.7808 4.23721e-006 1.53998e-005 174.436 -1.97153 71.5907 -28.051 33.0796 2.10622 48.8981 -0.654894 -0.0607989 28.7808 1.4092e-005 2.81049e-005 0.903042 6.40806 -90.3923 14.0731 1.40414 -1.50967 2.40192 1.33626 -1.57007 -20.1356 1.79452 -1.01855 -0.122925 1.79451 -1.01856 80.5712 -58.6991 -111.911 20.8734 20.1658 14.8122 17.2148 8.96952 -69.4829 13.5017 2.52539 15.2904 -103.279 -66.0973 65.1322 -19.5475 -16.1402 4.32669 -9.42066 -9.93411 -53.8543 -6.29998 -0.893854 18.7403 -23.426 17.7457 19.3076 -36.94 17.3296 7.69884 
54.0186 91.8923 -32.0572 -95.8094 -38.8344 -97.0422 -178.034 10.0497 79.1006 -22.0457 -6.79865 1.82649 62.3021 3.83759 2.10657 28.7808 4.23721e-006 1.53998e-005 176.107 0.53819 71.3818 -35.8401 28.1607 1.57077 43.4911 -3.80438 -2.5576 28.7808 1.4092e-005 2.81049e-005 0.907182 6.43794 -90.1989 14.0172 1.35612 -1.50151 2.34602 1.28873 -1.55974 -20.1911 1.74468 -1.02443 -0.178427 1.74466 -1.02447 80.7384 -58.6661 -111.696 21.06 19.9556 14.4062 18.1112 9.75803 -68.7651 11.1154 1.73273 11.9529 -102.927 -66.0709 65.5588 -19.5363 -16.1387 4.72602 -10.2022 -10.7427 -53.4013 -5.75098 -0.716679 16.6054 -23.217 17.2831 18.6932 -36.6091 16.9629 7.10189 
54.1302 91.6768 -31.1964 -96.7529 -41.6227 -97.8076 -177.976 9.72144 78.4768 -23.2894 -4.52646 2.013 63.0074 4.12334 2.24738 28.7808 4.23721e-006 1.53998e-005 177.269 2.3576 71.3437 -41.2991 23.5726 1.14108 41.616 -5.16229 -3.78366 28.7808 1.4092e-005 2.81049e-005 0.915122 6.46258 -90.0678 13.9706 1.32711 -1.48926 2.2994 1.2603 -1.54628 -20.2375 1.71323 -1.02114 -0.224862 1.71323 -1.02116 81.1041 -58.4105 -111.284 20.7449 20.121 14.3088 18.3963 10.4351 -67.6881 9.73984 1.48466 11.4889 -102.349 -66.1169 66.2872 -19.647 -16.0256 4.43171 -10.4765 -11.5395 -51.8766 -3.44106 -0.276863 15.3562 -22.8853 16.8662 18.4286 -36.4587 16.7254 6.19684 
54.2742 91.5449 -30.4083 -97.8034 -44.3439 -98.7202 -177.993 9.21302 77.8754 -24.1787 -2.00735 2.32682 63.2953 4.35934 2.36363 28.7808 4.23721e-006 1.53998e-005 178.139 3.94881 71.2271 -45.2423 22.0629 0.975376 41.5022 -6.07336 -4.57223 28.7808 1.4092e-005 2.81049e-005 0.917488 6.49437 -89.9845 13.9087 1.29952 -1.49088 2.23743 1.23272 -1.54672 -20.2992 1.68721 -1.03077 -0.28654 1.68719 -1.03079 81.4794 -58.07 -110.882 20.2252 20.4059 14.3424 20.1541 12.1157 -66.4081 7.75251 1.2402 12.0165 -102.25 -66.3398 66.4783 -18.6215 -16.7959 5.89075 -9.97331 -11.384 -51.0805 -5.43985 -0.584221 13.9225 -22.9595 16.3441 18.5947 -36.2125 16.5021 5.22405 
54.3727 91.5051 -29.7105 -98.8327 -46.9245 -99.5271 -177.973 8.51942 77.5519 -24.6239 0.585055 2.61209 63.5017 4.60669 2.49032 28.7808 4.23721e-006 1.53998e-005 178.654 5.16737 71.1307 -47.3478 24.0346 1.0855 43.5013 -8.17449 -6.22158 28.7808 1.4092e-005 2.81049e-005 0.894561 6.53006 -89.9401 13.8369 1.25644 -1.45239 2.16571 1.19126 -1.50623 -20.3707 1.63478 -1.00802 -0.358079 1.63478 -1.00801 81.3043 -58.1036 -111.107 19.1417 21.0453 14.8482 21.1129 13.7005 -64.7164 7.13035 1.25714 13.659 -100.924 -66.2914 68.1033 -17.8105 -17.3654 6.99308 -10.7183 -12.2565 -50.6149 -5.97943 -0.676085 14.0622 -22.5472 16.0565 18.1379 -36.7182 16.1944 4.85586 
54.399 91.4908 -29.0634 -100.098 -49.2205 -100.393 -177.801 7.69356 77.5061 -25.1648 3.05923 2.86923 63.758 4.83786 2.60223 28.7808 4.23721e-006 1.53998e-005 179.001 6.34941 71.0926 -48.4135 24.8349 1.12624 45.4623 -10.6703 -8.07716 28.7808 1.4092e-005 2.81049e-005 0.895935 6.58889 -89.8836 13.7205 1.25744 -1.43922 2.04934 1.19287 -1.49318 -20.4872 1.6313 -0.99479 -0.474544 1.63129 -0.994801 80.8376 -58.5211 -111.609 17.9768 21.5982 15.4697 21.6119 15.5108 -62.3827 6.03465 1.10845 14.2684 -99.2106 -65.8932 70.1181 -17.338 -17.6223 8.29193 -10.9266 -12.9282 -49.4808 -5.92463 -0.618848 12.606 -21.8716 15.8644 17.1014 -37.5399 15.751 4.98578 
54.5319 91.5113 -28.4625 -101.179 -51.7177 -101.272 -177.822 6.98874 77.315 -25.3605 5.61663 3.22011 63.7817 5.03201 2.70579 28.7808 4.23721e-006 1.53998e-005 179.058 7.49699 71.0358 -48.0453 23.4759 1.03398 47.3739 -11.63 -8.59706 28.7808 1.4092e-005 2.81049e-005 0.867185 6.62265 -89.9022 13.6521 1.22323 -1.4456 1.98085 1.15842 -1.49804 -20.5553 1.60111 -1.01108 -0.542675 1.60109 -1.01112 80.6395 -58.6943 -111.823 16.7409 22.0952 16.568 21.1049 16.7371 -59.9349 5.04204 1.01292 15.7247 -98.0461 -65.6737 71.5141 -16.9038 -17.8275 9.46368 -12.06 -14.6109 -48.3069 -4.84565 -0.425526 11.1199 -21.64 15.6255 16.8075 -37.8159 15.5387 4.66017 
54.631 91.5728 -27.8983 -101.532 -53.8327 -101.724 -177.88 6.63617 77.0933 -25.2249 7.29628 3.31194 63.4761 4.97783 2.67992 28.7808 4.23721e-006 1.53998e-005 179.012 9.1811 70.8833 -46.7653 19.7862 0.800779 48.6212 -12.9775 -9.48911 28.7808 1.4092e-005 2.81049e-005 0.870598 6.62135 -89.9169 13.6554 1.28283 -1.42574 1.98425 1.21881 -1.4807 -20.5526 1.65203 -0.975079 -0.53995 1.65202 -0.975096 80.6378 -58.973 -111.729 15.5243 22.5046 17.7293 20.9699 18.1185 -57.7701 3.87938 0.871146 17.4914 -96.6345 -65.3882 73.2136 -17.1239 -17.5636 8.75443 -13.5746 -17.7353 -45.6424 0.495601 0.284012 10.2819 -21.2411 15.4922 16.4206 -38.1952 15.3847 4.39916 
54.7559 91.7051 -27.3867 -102.141 -55.9963 -102.332 -177.93 6.00996 77.0045 -24.8063 9.83102 3.54822 63.0974 5.11601 2.77224 28.7808 4.23721e-006 1.53998e-005 178.706 10.3349 70.9917 -44.1414 18.8909 0.782503 52.1405 -11.4989 -7.88916 28.7808 1.4092e-005 2.81049e-005 0.863954 6.62926 -90.0123 13.6384 1.31912 -1.45064 1.96727 1.25403 -1.50725 -20.5698 1.69379 -0.987187 -0.557146 1.69377 -0.987209 81.0376 -58.9947 -111.182 14.4535 22.7984 19.2854 22.2632 20.1147 -56.6856 2.65725 0.67088 18.9676 -95.8235 -65.1711 74.1837 -16.2856 -18.0195 9.74802 -13.9561 -18.54 -45.0828 1.34465 0.520546 14.2359 -21.1162 15.2495 16.3335 -38.2357 15.2617 3.91156 
54.9026 91.8145 -26.9812 -103.066 -58.3667 -103.145 -177.978 5.43756 77.0076 -24.6274 12.3975 3.86785 62.8078 5.02197 2.73026 28.7808 4.23721e-006 1.53998e-005 178.332 11.3065 71.3538 -41.2091 17.5693 0.741467 54.9087 -11.177 -7.33444 28.7808 1.4092e-005 2.81049e-005 0.817219 6.65063 -90.0958 13.5931 1.26399 -1.46085 1.9219 1.19847 -1.51522 -20.6146 1.64458 -1.01343 -0.601936 1.64456 -1.01346 81.355 -59.1841 -110.692 13.7362 22.8723 20.5219 22.8877 21.6923 -55.4968 0.812519 0.289004 19.8338 -94.8688 -64.9288 75.3359 -15.9038 -18.1112 10.6378 -13.2173 -18.9971 -42.9537 2.67701 0.717393 13.7648 -20.952 15.0682 16.1213 -38.2468 15.1734 3.4804 
55.0046 91.9518 -26.576 -104.18 -60.6494 -104.102 -177.882 4.7695 77.1603 -24.4315 15.1358 4.12731 62.5522 4.93139 2.68921 28.7808 4.23721e-006 1.53998e-005 177.865 12.0066 71.8844 -37.8626 15.0957 0.629561 56.9943 -11.0297 -7.004 28.7808 1.4092e-005 2.81049e-005 0.74907 6.67083 -90.1695 13.5492 1.16009 -1.45076 1.87794 1.09511 -1.50058 -20.6576 1.54255 -1.03537 -0.644934 1.54253 -1.03539 81.5286 -59.4837 -110.362 13.0346 22.9841 21.7954 23.665 23.0212 -54.8942 -0.3241 0.0408657 20.952 -93.4912 -64.5321 77.0015 -15.2946 -18.3285 12.401 -13.2587 -19.5934 -42.1476 2.57039 0.670284 13.2019 -20.8402 14.919 15.7157 -38.335 15.0597 3.23223 
55.0675 92.0834 -26.3267 -104.708 -62.584 -104.448 -177.67 4.50141 77.5639 -24.3019 17.63 4.23064 62.5419 4.63525 2.52078 28.7808 4.23721e-006 1.53998e-005 177.722 13.5145 72.7308 -35.3981 12.285 0.487014 56.9452 -12.0186 -7.65678 28.7808 1.4092e-005 2.81049e-005 0.707495 6.66334 -90.2367 13.5627 1.10176 -1.47414 1.89135 1.03577 -1.52137 -20.6435 1.49393 -1.07525 -0.630895 1.49392 -1.07527 81.8203 -59.7698 -109.879 12.4205 23.1019 22.8761 24.5524 24.1408 -54.7181 -0.872305 -0.088538 22.1372 -91.959 -64.0724 78.8705 -14.8891 -18.4265 14.4844 -11.9128 -18.3428 -41.3171 1.40254 0.496059 13.2684 -20.8695 14.6929 15.3754 -38.3489 14.8897 2.99544 
55.1141 92.2463 -26.0913 -105.296 -64.4704 -104.961 -177.476 4.18666 77.9298 -24.0323 20.3056 4.33482 62.3639 4.16966 2.26053 28.7808 4.23721e-006 1.53998e-005 177.408 14.5148 73.7013 -32.1022 9.05781 0.334366 57.3444 -11.8413 -7.4872 28.7808 1.4092e-005 2.81049e-005 0.652541 6.65774 -90.3098 13.5708 1.01414 -1.46171 1.89938 0.948818 -1.50494 -20.6348 1.40654 -1.08929 -0.622176 1.40651 -1.08932 82.222 -60.0078 -109.265 12.3367 23.008 23.7955 25.1671 24.8232 -54.7156 -1.13697 -0.150033 21.5244 -90.613 -63.7111 80.5382 -14.1193 -18.7478 16.3603 -13.1745 -19.5971 -41.9811 0.407683 0.377226 14.7153 -20.9626 14.3994 15.1724 -38.1747 14.6958 2.67092 
